<?xml version="1.0" standalone="no"?>
<!DOCTYPE svg PUBLIC "-//W3C//DTD SVG 20010904//EN"
 "http://www.w3.org/TR/2001/REC-SVG-20010904/DTD/svg10.dtd">
<svg version="1.0" xmlns="http://www.w3.org/2000/svg"
 width="165.000000pt" height="165.000000pt" viewBox="0 0 165.000000 165.000000"
 preserveAspectRatio="xMidYMid meet">

<g transform="translate(0.000000,165.000000) scale(0.100000,-0.100000)"
fill="#000000" stroke="none">
<path d="M0 825 l0 -825 825 0 825 0 0 825 0 825 -825 0 -825 0 0 -825z m592
338 c-6 -3 -10 -9 -6 -14 8 -14 24 -11 24 6 0 13 31 15 219 15 193 0 220 -2
232 -17 12 -15 12 -16 -3 -10 -19 7 -25 -7 -8 -18 6 -3 10 -14 10 -23 -1 -16
-1 -16 -11 1 -6 10 -22 17 -39 17 -28 0 -29 -2 -20 -26 6 -14 10 -38 10 -54 0
-20 8 -35 25 -46 14 -9 22 -21 18 -27 -3 -6 -1 -7 6 -3 6 4 9 10 7 14 -7 11
18 29 37 26 9 -1 15 2 11 7 -3 5 -10 7 -15 4 -5 -4 -9 5 -9 19 0 14 -5 28 -10
31 -7 4 -8 11 -2 18 6 7 8 29 7 50 -5 56 16 46 34 -18 3 -11 5 -56 5 -99 1
-77 0 -79 -24 -83 -19 -2 -21 -1 -10 6 8 5 18 7 22 5 4 -3 8 0 8 6 0 7 -7 9
-16 6 -9 -3 -25 -6 -37 -6 -18 0 -19 -2 -7 -10 10 -6 11 -10 3 -10 -9 0 -13
-17 -13 -49 l0 -49 37 9 c21 4 39 6 42 3 8 -8 -34 -33 -59 -35 -21 -1 -22 -2
-5 -6 11 -3 26 -10 33 -15 9 -8 12 -6 12 6 0 9 5 16 10 16 7 0 9 -34 7 -90 -2
-53 0 -90 6 -90 5 0 7 9 4 21 -3 12 -3 18 0 15 4 -3 12 -1 19 5 18 15 62 21
69 9 4 -7 -3 -9 -18 -6 -27 5 -49 -13 -61 -49 -5 -17 -3 -16 13 4 10 14 25 26
32 27 8 1 25 5 39 7 14 3 27 6 30 6 3 1 -1 5 -9 10 -10 6 1 9 34 9 33 0 44 -3
34 -9 -9 -5 -10 -9 -2 -9 6 0 15 4 18 10 5 8 29 8 78 1 4 0 7 -6 7 -12 0 -8
-5 -7 -15 1 -13 11 -14 10 -9 -5 7 -17 6 -17 -22 0 l-29 17 25 -20 c27 -23 60
-14 60 16 1 15 2 15 11 -1 14 -23 4 -62 -21 -87 -11 -11 -20 -25 -20 -32 0 -6
3 -8 7 -5 3 4 12 2 20 -5 12 -10 13 -7 8 15 -4 15 -3 27 2 27 6 0 10 -27 10
-60 0 -51 -2 -57 -13 -42 -16 21 -18 9 -3 -21 10 -21 10 -21 -5 -3 -16 20 -16
20 -17 0 0 -10 -3 -13 -6 -6 -2 6 -9 12 -14 12 -6 0 -8 -3 -6 -7 3 -5 -12 -9
-34 -10 -21 -2 -41 2 -45 8 -4 7 1 9 15 4 11 -3 21 -2 21 3 0 13 -33 11 -50
-4 -21 -17 -31 -18 -42 -2 -7 10 -11 10 -15 1 -6 -17 -49 -17 -56 0 -3 7 3 18
13 25 24 15 34 3 12 -15 -15 -13 -14 -13 6 -3 13 6 30 9 38 6 9 -3 12 -1 9 4
-3 6 0 10 7 10 9 0 9 3 -2 10 -12 8 -12 10 -1 10 8 0 12 2 9 5 -3 3 -13 2 -22
-1 -14 -5 -15 -9 -4 -15 10 -7 9 -9 -4 -9 -9 0 -19 4 -22 8 -9 15 28 37 62 37
19 0 36 4 40 9 3 5 0 6 -5 3 -6 -4 -18 4 -27 18 -17 26 -36 33 -36 14 0 -21
-37 -58 -47 -48 -7 7 -12 5 -16 -5 -4 -11 -1 -13 11 -10 11 4 8 -2 -8 -16 -14
-12 -24 -28 -23 -34 2 -7 -7 -12 -18 -13 -16 -2 -20 2 -16 18 3 11 1 34 -5 51
-8 23 -13 27 -20 16 -7 -9 -9 -8 -5 7 3 15 -1 21 -16 22 -15 2 -17 -1 -8 -10
16 -16 14 -23 -11 -24 -13 -1 -18 1 -13 5 6 4 10 13 11 20 2 30 5 34 18 29 11
-5 11 0 -2 23 -9 16 -21 26 -27 22 -5 -3 -3 3 5 13 8 10 10 16 3 12 -8 -5 -11
-1 -10 12 1 16 4 18 15 8 14 -11 49 -20 38 -10 -3 4 -1 13 6 20 9 11 9 17 -3
24 -19 12 -29 11 -29 -1 0 -5 -7 -10 -15 -10 -9 0 -12 6 -9 15 4 8 16 15 28
15 17 0 18 2 6 10 -10 6 -11 10 -2 10 19 0 14 18 -10 31 -16 9 -23 9 -26 0 -2
-6 -11 -11 -19 -11 -11 0 -14 -7 -11 -25 3 -14 0 -26 -6 -26 -6 -1 -74 -5
-151 -9 l-140 -8 143 2 c78 1 142 -2 142 -6 0 -4 -8 -7 -17 -7 -40 -1 -63 -7
-64 -16 0 -5 5 -11 12 -14 6 -2 9 1 6 6 -3 5 0 10 8 10 8 0 15 -4 15 -9 0 -4
-5 -8 -11 -8 -8 0 -8 -4 0 -14 7 -8 11 -30 9 -50 -2 -28 -6 -35 -18 -31 -11 4
-11 2 2 -8 13 -10 16 -25 14 -55 -3 -38 -16 -73 -16 -44 0 16 -27 15 -33 0 -3
-7 -6 -4 -6 6 -1 20 -1 20 -16 0 -13 -17 -14 -17 -15 -2 0 9 5 20 12 24 7 5 5
11 -7 21 -26 18 -42 16 -48 -6 -3 -15 0 -18 17 -14 20 4 20 4 -3 -15 -25 -20
-71 -27 -71 -10 0 6 -7 5 -15 -2 -13 -11 -15 -8 -15 14 0 15 8 31 20 38 21 13
27 52 10 63 -15 9 -12 38 3 29 6 -4 9 -3 4 1 -4 5 1 17 10 28 10 11 12 17 6
13 -9 -5 -13 -1 -13 12 0 26 -11 34 -27 21 -7 -6 -13 -7 -13 -2 0 5 -7 10 -15
10 -8 0 -12 -4 -9 -9 8 -13 -10 -10 -25 5 -8 7 -11 7 -8 1 4 -7 0 -17 -8 -24
-17 -14 -20 -30 -5 -30 6 0 10 7 10 15 0 13 9 16 48 15 4 0 7 -8 7 -18 1 -9 8
-34 18 -56 21 -47 22 -62 2 -46 -8 7 -16 24 -16 39 -2 23 -2 23 -6 4 -2 -12 0
-30 5 -40 8 -13 4 -22 -16 -40 -16 -14 -20 -21 -9 -17 21 7 22 -2 3 -22 -11
-10 -15 -11 -19 -1 -2 6 -18 12 -35 13 -17 0 -29 -3 -26 -7 2 -4 16 -6 30 -3
14 3 23 1 20 -5 -7 -11 -76 -9 -95 3 -9 6 -12 5 -8 -1 4 -6 -4 -10 -19 -10
l-25 0 21 19 c20 18 23 19 39 4 15 -14 18 -14 18 -1 0 8 -4 12 -9 9 -12 -8
-10 10 3 23 6 6 8 16 4 22 -9 16 -27 2 -21 -16 4 -10 2 -13 -7 -10 -7 3 -19
-4 -25 -14 -9 -14 -19 -18 -37 -13 -15 4 -25 2 -25 -5 0 -6 7 -8 15 -5 8 4 15
2 15 -3 0 -11 -66 -9 -92 2 -10 4 -15 11 -12 16 3 5 0 9 -6 9 -6 0 -9 4 -5 9
3 5 0 13 -6 17 -8 4 -9 3 -5 -4 4 -7 2 -12 -3 -12 -6 0 -11 -7 -11 -16 0 -9 5
-12 11 -8 7 4 10 1 7 -6 -7 -21 -28 -24 -28 -3 0 14 -2 15 -9 4 -14 -21 -61
-24 -62 -3 0 14 -2 15 -7 2 -4 -8 -19 -16 -33 -17 l-27 -1 2 116 1 117 37 0
c37 1 38 0 37 -35 -1 -19 -1 -56 0 -81 1 -50 -1 -49 76 -40 6 0 10 13 9 29 -1
15 5 37 12 49 11 18 12 21 1 17 -8 -3 -14 2 -14 10 0 8 3 13 7 11 3 -2 11 5
18 16 7 11 8 19 2 19 -5 0 -10 -4 -10 -10 0 -5 -4 -10 -8 -10 -5 0 -9 7 -9 15
0 11 12 14 46 12 25 0 49 -5 52 -10 9 -13 89 -17 89 -4 0 6 3 8 6 4 3 -3 2
-13 -4 -23 -6 -11 -11 -13 -16 -5 -4 6 -11 11 -16 11 -5 0 3 -12 18 -27 25
-26 42 -25 42 2 0 6 -5 3 -10 -5 -8 -12 -10 -11 -10 8 0 29 14 28 35 -4 9 -15
13 -24 7 -20 -10 6 -26 -23 -17 -32 3 -3 5 1 5 8 0 7 3 11 6 8 3 -4 0 -16 -6
-28 -12 -23 -3 -42 23 -46 9 -1 12 9 9 35 -6 69 -13 102 -21 97 -12 -8 -41 28
-33 40 4 6 14 14 22 17 10 4 8 6 -6 6 -14 1 -24 -7 -27 -19 -3 -12 -14 -20
-25 -20 -18 0 -19 4 -13 28 4 15 7 45 6 67 -2 34 1 42 24 53 l26 13 -26 -4
c-25 -3 -26 -2 -28 51 -1 32 3 60 11 70 7 9 8 13 3 10 -7 -4 -12 5 -13 23 -1
16 2 29 7 29 5 0 7 -10 4 -22 -3 -17 -2 -19 5 -10 7 11 10 10 16 -3 3 -9 4
-21 0 -26 -3 -5 0 -9 5 -9 6 0 11 9 11 20 0 10 9 24 20 30 13 7 20 21 20 40 0
16 4 40 10 54 9 24 8 26 -21 26 -17 0 -39 5 -50 10 -15 8 -19 7 -19 -4 0 -10
6 -13 15 -10 16 6 21 -7 8 -20 -5 -4 -8 -11 -9 -14 0 -4 -6 -18 -12 -32 -11
-25 -11 -24 -9 8 0 17 5 32 10 32 5 0 5 6 -1 13 -5 6 -10 23 -10 37 0 19 6 26
22 27 11 1 15 -1 8 -4z m523 -3 c3 -5 1 -10 -4 -10 -6 0 -11 5 -11 10 0 6 2
10 4 10 3 0 8 -4 11 -10z m-85 -460 c0 -5 -5 -10 -11 -10 -5 0 -7 5 -4 10 3 6
8 10 11 10 2 0 4 -4 4 -10z m59 -16 c-6 -7 -15 -11 -20 -8 -5 3 -3 11 4 18 16
18 31 8 16 -10z m-554 -4 c3 -5 2 -10 -4 -10 -5 0 -13 5 -16 10 -3 6 -2 10 4
10 5 0 13 -4 16 -10z m230 -40 c-9 -41 -17 -33 -9 9 4 17 9 30 11 27 3 -2 2
-19 -2 -36z m295 -34 c0 -8 -4 -17 -9 -21 -6 -3 -9 4 -8 15 1 23 17 28 17 6z
m210 -45 c0 -5 -7 -11 -15 -15 -15 -5 -20 5 -8 17 9 10 23 9 23 -2z m-620 -17
c0 -8 -4 -12 -10 -9 -5 3 -10 10 -10 16 0 5 5 9 10 9 6 0 10 -7 10 -16z m220
-44 c8 -5 11 -10 5 -10 -5 0 -17 5 -25 10 -8 5 -10 10 -5 10 6 0 17 -5 25 -10z"/>
<path d="M732 1081 c-15 -50 -15 -56 4 -75 12 -12 20 -13 35 -6 15 9 19 22 19
65 0 51 -2 55 -23 55 -19 0 -26 -8 -35 -39z"/>
<path d="M860 1065 c0 -60 19 -83 53 -64 20 11 21 29 6 82 -8 30 -15 37 -34
37 -24 0 -25 -3 -25 -55z"/>
<path d="M1101 1074 c0 -11 3 -14 6 -6 3 7 2 16 -1 19 -3 4 -6 -2 -5 -13z"/>
<path d="M1075 1070 c3 -5 8 -10 11 -10 2 0 4 5 4 10 0 6 -5 10 -11 10 -5 0
-7 -4 -4 -10z"/>
<path d="M1070 969 c0 -5 5 -7 10 -4 6 3 10 8 10 11 0 2 -4 4 -10 4 -5 0 -10
-5 -10 -11z"/>
<path d="M603 890 c0 -25 2 -35 4 -22 2 12 2 32 0 45 -2 12 -4 2 -4 -23z"/>
<path d="M590 810 c0 -5 5 -10 10 -10 6 0 10 5 10 10 0 6 -4 10 -10 10 -5 0
-10 -4 -10 -10z"/>
<path d="M570 784 c0 -8 5 -12 10 -9 6 4 8 11 5 16 -9 14 -15 11 -15 -7z"/>
<path d="M627 694 c-10 -11 3 -24 24 -24 10 0 19 5 19 12 0 6 -3 8 -7 5 -3 -4
-11 -2 -18 3 -7 5 -15 7 -18 4z"/>
<path d="M800 675 c12 -14 93 -11 96 4 1 6 0 7 -3 1 -2 -5 -10 -7 -16 -3 -20
12 -87 10 -77 -2z"/>
<path d="M250 676 c0 -2 7 -6 15 -10 8 -3 15 -1 15 4 0 6 -7 10 -15 10 -8 0
-15 -2 -15 -4z"/>
<path d="M450 675 c0 -7 30 -13 34 -7 3 4 -4 9 -15 9 -10 1 -19 0 -19 -2z"/>
<path d="M1241 648 c-18 -23 -21 -32 -12 -41 14 -14 31 6 31 36 0 10 4 16 9
12 5 -3 13 0 17 6 4 7 3 9 -4 5 -5 -3 -12 -2 -14 2 -1 5 -14 -4 -27 -20z m0
-31 c-10 -9 -11 -8 -5 6 3 10 9 15 12 12 3 -3 0 -11 -7 -18z"/>
<path d="M250 643 c0 -13 5 -23 10 -23 13 0 13 11 0 30 -8 12 -10 11 -10 -7z"/>
<path d="M435 650 c-3 -6 1 -7 9 -4 18 7 21 14 7 14 -6 0 -13 -4 -16 -10z"/>
<path d="M915 640 c10 -11 22 -17 28 -13 6 4 3 12 -8 20 -28 20 -41 16 -20 -7z"/>
<path d="M1390 631 c0 -5 7 -11 14 -14 10 -4 13 -1 9 9 -6 15 -23 19 -23 5z"/>
<path d="M1368 619 c-2 -7 -14 -14 -27 -16 -15 -2 -20 1 -15 9 4 7 3 8 -4 4
-17 -10 -15 -13 20 -30 29 -15 33 -15 47 -1 14 13 14 17 -1 31 -12 12 -17 13
-20 3z m16 -24 c-4 -8 -11 -12 -16 -9 -6 4 -5 10 3 15 19 12 19 11 13 -6z"/>
<path d="M490 610 c0 -5 5 -10 10 -10 6 0 10 5 10 10 0 6 -4 10 -10 10 -5 0
-10 -4 -10 -10z"/>
<path d="M523 613 c4 -6 1 -13 -5 -16 -7 -2 -11 -7 -8 -9 3 -3 13 -2 23 1 18
7 18 8 1 21 -10 8 -15 10 -11 3z"/>
<path d="M846 608 c3 -5 10 -6 15 -3 13 9 11 12 -6 12 -8 0 -12 -4 -9 -9z"/>
<path d="M251 570 c0 -25 3 -51 8 -59 5 -8 7 5 4 35 -6 68 -11 77 -12 24z"/>
<path d="M1142 603 c-13 -5 -7 -23 9 -23 6 0 8 4 5 9 -4 5 0 12 6 14 7 3 9 5
3 5 -5 0 -16 -2 -23 -5z"/>
<path d="M826 591 c-3 -4 8 -12 25 -18 16 -6 31 -8 33 -4 3 4 -8 12 -25 18
-16 6 -31 8 -33 4z"/>
<path d="M471 581 c-12 -7 -12 -13 -3 -24 7 -7 8 -18 4 -22 -4 -5 -2 -5 5 -2
6 4 13 2 15 -4 2 -7 4 5 5 25 1 38 -3 42 -26 27z"/>
<path d="M530 570 c0 -5 5 -10 10 -10 6 0 10 5 10 10 0 6 -4 10 -10 10 -5 0
-10 -4 -10 -10z"/>
<path d="M510 561 c0 -10 19 -25 25 -20 1 2 -3 10 -11 17 -8 7 -14 8 -14 3z"/>
<path d="M1195 560 c-3 -5 -1 -10 4 -10 6 0 11 5 11 10 0 6 -2 10 -4 10 -3 0
-8 -4 -11 -10z"/>
<path d="M1403 533 c5 -7 -7 -22 -30 -37 -21 -15 -32 -26 -26 -26 7 0 15 5 18
10 4 6 10 8 15 5 5 -3 18 3 29 14 18 18 18 21 3 33 -10 8 -13 9 -9 1z"/>
<path d="M250 479 c0 -5 5 -7 10 -4 6 3 10 8 10 11 0 2 -4 4 -10 4 -5 0 -10
-5 -10 -11z"/>
<path d="M780 476 c0 -2 7 -7 16 -10 8 -3 12 -2 9 4 -6 10 -25 14 -25 6z"/>
</g>
</svg>
